<svg width="95" height="95" viewBox="0 0 95 95" fill="none" xmlns="http://www.w3.org/2000/svg">
<path d="M73.0867 61.5758C73.2608 61.8925 73.4033 62.1616 73.5458 62.415C75.7467 66.1991 77.9475 69.9833 80.1642 73.7516C80.5442 74.385 80.8292 75.0025 80.2908 75.6833C79.7683 76.3483 79.0875 76.2375 78.3908 76.0316C75.1925 75.1608 71.9942 74.3058 68.7958 73.4508C68.6058 73.4033 68.4158 73.3716 68.1308 73.3083C67.6716 75.0183 67.2125 76.6966 66.7533 78.375C66.2783 80.1166 65.8192 81.8741 65.36 83.6316C65.1858 84.3125 64.9167 84.93 64.125 85.0408C63.3333 85.1516 62.9217 84.6291 62.5733 84.0116C60.4992 80.3858 58.4092 76.76 56.2875 73.15C56.0975 72.8175 55.67 72.58 55.3058 72.4216C53.9758 71.8675 52.6142 71.3766 51.2683 70.8383C50.73 70.6166 50.1917 70.3791 49.6533 70.1416C48.2442 69.5083 46.8508 69.5083 45.4417 70.1258C43.9058 70.8066 42.4175 71.6458 40.8183 72.0416C39.3775 72.39 38.665 73.2133 38 74.4008C36.195 77.6625 34.295 80.8925 32.4108 84.1225C31.8567 85.0725 31.0333 85.3416 30.3525 84.7558C30.0517 84.4866 29.83 84.0433 29.7192 83.6316C28.8008 80.3225 27.93 77.0133 27.0275 73.7041C26.9958 73.5933 26.9642 73.4983 26.9008 73.3241C26.6792 73.3558 26.4733 73.3875 26.2675 73.435C23.1167 74.2741 19.9658 75.1291 16.8308 75.9683C16.0867 76.1741 15.3425 76.4116 14.7567 75.6675C14.1708 74.9233 14.5667 74.2583 14.9625 73.5933C17.1317 69.8566 19.285 66.1041 21.4542 62.3675C21.6125 62.0983 21.7392 61.845 21.9133 61.5283C19.1108 60.0558 18.7942 57.5541 19.0792 54.8308C19.19 53.7225 19.3167 52.6141 19.4592 51.5058C19.665 49.8591 19.2375 48.4341 18.0975 47.1991C16.9892 46.0275 15.8808 44.84 14.8992 43.5416C13.015 41.04 12.9992 38.8391 14.8833 36.3375C15.8492 35.055 16.9733 33.8675 18.0817 32.6958C19.285 31.4133 19.665 29.9408 19.4592 28.2308C19.2692 26.6475 19.0633 25.0641 19.0317 23.4808C18.9683 20.5516 20.2667 18.7625 23.1008 17.8916C24.7158 17.4008 26.3942 17.0841 28.0567 16.7516C29.5767 16.435 30.685 15.6275 31.445 14.2816C32.2842 12.8091 33.0917 11.305 34.0575 9.91163C35.7675 7.44163 37.8575 6.8083 40.7075 7.7583C41.2617 7.9483 41.8 8.16996 42.3383 8.40746C43.3833 8.86663 44.4125 9.34163 45.4733 9.8008C46.8192 10.3866 48.1808 10.3866 49.5267 9.8008C50.6825 9.29413 51.8067 8.7558 52.9625 8.2808C53.7383 7.96413 54.53 7.69496 55.3375 7.50496C57.285 7.02996 58.995 7.58413 60.23 9.10413C61.2433 10.355 62.1617 11.7166 62.8425 13.1575C63.9825 15.5166 65.7558 16.7358 68.3208 17.1C69.825 17.3058 71.3292 17.7175 72.7542 18.2558C74.765 19.0158 75.905 20.5991 75.9208 22.7525C75.9367 24.7 75.715 26.6475 75.5408 28.5791C75.3983 30.115 75.7783 31.4291 76.8392 32.5691C77.8367 33.6458 78.8658 34.7225 79.7841 35.8783C82.08 38.7441 82.0641 41.1825 79.7683 44.0483C79.1191 44.8558 78.4542 45.6633 77.6942 46.3441C75.715 48.1016 75.1608 50.2391 75.6517 52.7725C75.8417 53.7225 75.8892 54.7041 75.9683 55.6858C76.1583 58.2191 75.525 60.325 73.0867 61.5758ZM73.3083 24.3833C73.3875 21.7233 72.865 20.9791 70.585 20.3616C69.6667 20.1083 68.7483 19.9025 67.8142 19.7758C64.4575 19.3325 62.0192 17.67 60.5467 14.5825C60.0242 13.4741 59.3592 12.4291 58.6467 11.4316C57.6808 10.07 56.8258 9.81663 55.2425 10.3708C54.0867 10.7666 52.9467 11.2416 51.87 11.8116C48.9567 13.3475 46.075 13.3633 43.1617 11.8275C42.18 11.305 41.1508 10.8616 40.1058 10.4658C38.19 9.7533 37.24 10.0383 36.1 11.7325C35.3717 12.825 34.7225 13.965 34.1208 15.1208C32.7908 17.7016 30.7167 19.1583 27.8667 19.6175C26.4892 19.8391 25.1275 20.14 23.7975 20.5358C22.1825 21.0266 21.66 21.755 21.6758 23.4175C21.6917 24.605 21.7708 25.8241 21.9767 26.9958C22.515 30.1941 21.8183 32.9491 19.4117 35.2291C18.5883 36.005 17.8283 36.8758 17.1158 37.7783C15.8017 39.4566 15.8017 40.5491 17.1317 42.2116C18.0342 43.3358 19.0475 44.3966 20.0292 45.4575C21.6283 47.1991 22.325 49.2258 22.0875 51.6008C21.9133 53.3108 21.7708 55.0366 21.6758 56.7625C21.6125 58.0608 22.2775 58.9475 23.5125 59.3275C24.5417 59.6441 25.6025 59.9766 26.6633 60.1033C30.4158 60.5308 33.1233 62.3358 34.6592 65.8508C34.9917 66.6108 35.4667 67.3233 35.91 68.02C37.1925 69.9833 38.1742 70.3 40.3592 69.4291C41.5942 68.9383 42.8133 68.3683 44.0325 67.7983C46.36 66.7216 48.6558 66.7533 50.9833 67.8141C52.2975 68.4158 53.6117 69.0333 54.9575 69.5558C56.7783 70.2366 57.7442 69.9358 58.8367 68.3366C59.6125 67.1808 60.2933 65.9616 60.9425 64.7266C62.225 62.32 64.1883 60.9108 66.8642 60.42C68.3367 60.1508 69.825 59.85 71.2658 59.4225C72.7858 58.9633 73.3083 58.235 73.2925 56.6516C73.2767 55.4008 73.1817 54.1341 72.9917 52.8991C72.5008 49.7958 73.1342 47.1041 75.4617 44.8716C76.3642 44.0008 77.2033 43.0508 77.9633 42.0691C79.135 40.5491 79.1192 39.5041 77.995 37.9683C77.6308 37.4775 77.2192 37.0183 76.8075 36.5591C76.0792 35.7516 75.3508 34.9441 74.6225 34.1366C73.2292 32.5691 72.675 30.7166 72.865 28.6425C73.0233 27.1225 73.1817 25.6025 73.3083 24.3833ZM18.62 72.7066C18.905 72.6433 19.0633 72.6116 19.2058 72.58C21.8658 71.8675 24.5258 71.155 27.1858 70.4583C28.31 70.1575 28.8958 70.49 29.1967 71.5825C29.3867 72.2475 29.545 72.9283 29.735 73.5933C30.305 75.7466 30.8908 77.9158 31.5242 80.275C33.155 77.425 34.675 74.765 35.8942 72.6591C35.245 71.7408 34.7383 71.0283 34.2475 70.3158C33.7567 69.5716 33.25 68.8433 32.7908 68.0833C32.3 67.2758 31.8567 66.4366 31.3975 65.6133C30.6533 64.2516 29.5133 63.46 27.9933 63.1591C27.0592 62.985 26.125 62.8108 25.2225 62.5733C24.6525 62.415 24.3833 62.5891 24.0983 63.08C22.4042 66.0566 20.6942 69.0175 18.9842 71.9941C18.8733 72.1841 18.7783 72.39 18.62 72.7066ZM76.3958 72.77C76.1583 72.3425 76.0158 72.0733 75.8575 71.82C74.4642 69.3975 73.0708 66.9908 71.6775 64.5841C71.2658 63.8875 70.9808 62.89 70.3792 62.6208C69.7775 62.3516 68.8433 62.8583 68.0358 62.9375C65.6292 63.1908 63.9508 64.4258 62.9692 66.6266C62.8267 66.9275 62.6525 67.2125 62.4942 67.5133C61.5283 69.2708 60.5625 71.0283 58.7258 72.105C60.2933 74.8125 61.8133 77.4408 63.4442 80.2433C63.5392 79.9108 63.5867 79.8 63.6183 79.6733C64.3308 77.0133 65.0433 74.3533 65.7717 71.6775C66.1042 70.4583 66.6425 70.1575 67.8775 70.4741C69.0967 70.7908 70.3 71.1233 71.5033 71.4558C73.055 71.8833 74.6383 72.3108 76.3958 72.77Z" fill="#1A3954"/>
<path d="M47.4683 60.8633C35.9575 60.8475 26.6 51.4741 26.6 39.995C26.6 28.4683 36.0208 19.0791 47.5475 19.1108C59.0266 19.1425 68.4158 28.5475 68.3841 40.0266C68.3525 51.5216 58.9633 60.8791 47.4683 60.8633ZM47.5 58.1558C57.5225 58.1558 65.6608 50.0491 65.7083 40.0425C65.74 30.0358 57.5541 21.8025 47.5316 21.7866C37.4933 21.7708 29.2916 29.9408 29.2916 39.9633C29.26 50.0016 37.4458 58.1558 47.5 58.1558Z" fill="#1A3954"/>
<path d="M44.7608 45.5525C44.9667 45.2042 45.0775 44.8875 45.2833 44.6817C49.4158 40.5333 53.5642 36.385 57.6967 32.2525C57.8867 32.0625 58.0767 31.8408 58.3142 31.6825C58.9317 31.2708 59.5492 31.3025 60.0558 31.825C60.5467 32.3317 60.5625 32.9333 60.1667 33.5033C59.9925 33.7567 59.7708 33.9625 59.5492 34.1842C55.0367 38.7125 50.5242 43.225 46.0117 47.7533C44.8717 48.8933 44.3492 48.8933 43.225 47.7692C40.5492 45.0933 37.8575 42.4017 35.1817 39.7258C34.6908 39.235 34.4058 38.6967 34.6908 38.0158C35.0708 37.0975 36.1633 36.955 36.9708 37.7467C38.5858 39.33 40.1692 40.9292 41.7683 42.5283C42.6867 43.4467 43.5892 44.3808 44.7608 45.5525Z" fill="#1A3954"/>
</svg>
