<svg width="95" height="95" viewBox="0 0 95 95" fill="none" xmlns="http://www.w3.org/2000/svg">
<path d="M85.7058 26.9166C86.9092 26.9166 87.9858 26.9166 89.0467 26.9166C91.0258 26.9166 91.4217 27.2966 91.4217 29.26C91.4375 42.7025 91.4375 56.145 91.4375 69.6033C91.4375 72.1208 91.4375 74.6225 91.4375 77.14C91.4375 79.2458 91.01 79.6733 88.9358 79.6733C74.955 79.6733 60.9742 79.6733 46.9775 79.6733C33.3925 79.6733 19.8233 79.6733 6.23833 79.6733C3.97417 79.6733 3.57833 79.2933 3.57833 77.0291C3.57833 61.1166 3.5625 45.2041 3.5625 29.2916C3.5625 27.36 4.00583 26.9325 5.9375 26.9166C6.99833 26.9166 8.075 26.9166 9.31 26.9166C9.31 25.0958 9.29417 23.4175 9.31 21.7233C9.32583 20.0133 9.84833 19.4591 11.5425 19.4591C20.235 19.4591 28.9275 19.4116 37.62 19.4908C41.23 19.5225 44.6342 20.425 47.4683 23.0691C51.2367 19.57 55.9075 19.4116 60.6733 19.4433C68.1625 19.5066 75.6358 19.4591 83.125 19.4591C85.215 19.4591 85.6583 19.9025 85.6742 21.9608C85.7058 23.56 85.7058 25.1591 85.7058 26.9166ZM12.6667 71.1391C13.3158 71.1391 13.8067 71.1391 14.2975 71.1391C21.2958 71.1391 28.2942 71.1708 35.2767 71.1233C38.855 71.0916 42.3383 71.44 45.5683 73.1658C45.6317 73.1975 45.7267 73.1341 45.885 73.0866C45.885 72.6591 45.885 72.2158 45.885 71.7724C45.885 57.285 45.8375 42.8133 45.9325 28.3258C45.9483 26.125 45.0617 24.7 43.2092 24.0666C41.1983 23.3858 39.0608 22.8316 36.955 22.7841C29.2917 22.6416 21.6283 22.7208 13.9492 22.7208C13.5217 22.7208 13.0942 22.7841 12.6667 22.8158C12.6667 38.9658 12.6667 54.9575 12.6667 71.1391ZM49.1467 73.0708C51.11 72.485 52.8675 71.7724 54.6883 71.4558C56.525 71.1391 58.4408 71.1549 60.3092 71.1391C67.165 71.1074 74.0208 71.1233 80.8767 71.1233C81.3517 71.1233 81.8267 71.0758 82.3017 71.0441C82.3017 54.8783 82.3017 38.855 82.3017 22.8C81.985 22.7525 81.7633 22.705 81.5575 22.705C73.53 22.705 65.5025 22.61 57.4908 22.7683C55.4483 22.8158 53.3742 23.5283 51.4267 24.2408C49.8275 24.8266 49.0833 26.1566 49.0992 28.0566C49.1625 42.4016 49.1308 56.7466 49.1308 71.0916C49.1467 71.8041 49.1467 72.4691 49.1467 73.0708ZM6.96667 30.2575C6.96667 45.6475 6.96667 60.9425 6.96667 76.285C19.2692 76.285 31.4767 76.285 43.6683 76.285C43.2567 75.7941 42.7817 75.4616 42.2592 75.3666C40.5175 75.0341 38.7442 74.5591 36.9867 74.5433C28.6583 74.4641 20.3142 74.5116 11.9858 74.4958C9.72167 74.4958 9.32583 74.0841 9.32583 71.8516C9.32583 58.5358 9.32583 45.2358 9.32583 31.92C9.32583 31.3975 9.32583 30.875 9.32583 30.2733C8.47083 30.2575 7.77417 30.2575 6.96667 30.2575ZM85.7058 30.2575C85.7058 30.875 85.7058 31.4133 85.7058 31.9358C85.7058 45.2991 85.7058 58.6466 85.7058 72.0099C85.7058 74.0208 85.2467 74.4799 83.2675 74.4799C74.9708 74.4799 66.69 74.4799 58.3933 74.4799C57.5383 74.4799 56.6675 74.4325 55.8442 74.6066C54.2925 74.9391 52.7725 75.4141 51.2367 75.8258C51.2683 75.9683 51.3158 76.1108 51.3475 76.2375C63.5867 76.2375 75.8258 76.2375 88.0808 76.2375C88.0808 60.8475 88.0808 45.5841 88.0808 30.2416C87.3208 30.2575 86.6242 30.2575 85.7058 30.2575Z" fill="#1A3954"/>
<path d="M29.0858 38.475C26.4417 38.475 23.7975 38.475 21.1533 38.475C20.8367 38.475 20.52 38.4908 20.2192 38.475C19.19 38.3958 18.4775 37.8733 18.4933 36.7967C18.4933 35.72 19.2217 35.1817 20.2667 35.1817C26.2675 35.1658 32.2842 35.1658 38.285 35.1817C39.33 35.1817 40.0108 35.7517 39.995 36.8283C39.9792 38 39.1875 38.4592 38.1108 38.4592C35.0867 38.4908 32.0942 38.475 29.0858 38.475Z" fill="#1A3954"/>
<path d="M29.2125 49.0041C26.3467 49.0041 23.4808 49.0199 20.615 49.0041C19.2217 49.0041 18.4458 48.3866 18.4617 47.3416C18.4775 46.2966 19.2217 45.7266 20.6467 45.7266C26.3783 45.7266 32.11 45.7266 37.8575 45.7424C39.2667 45.7424 40.0108 46.3282 39.995 47.3891C39.9792 48.4341 39.2508 49.0041 37.81 49.0199C34.96 49.0199 32.0942 49.0041 29.2125 49.0041Z" fill="#1A3954"/>
<path d="M29.2283 59.5333C26.3625 59.5333 23.4967 59.5491 20.6308 59.5333C19.2375 59.5333 18.4775 58.9158 18.4775 57.8708C18.4775 56.8258 19.2058 56.2716 20.6625 56.2716C26.3942 56.2716 32.1417 56.2716 37.8733 56.2716C39.3142 56.2716 40.0267 56.8416 40.0108 57.9024C39.995 58.9633 39.2667 59.5174 37.8417 59.5174C34.96 59.5333 32.0942 59.5333 29.2283 59.5333Z" fill="#1A3954"/>
<path d="M65.8192 38.4749C62.9533 38.4749 60.0875 38.4907 57.2217 38.4749C55.7967 38.4749 55.0525 37.9049 55.0367 36.8441C55.0208 35.7832 55.7333 35.1657 57.1583 35.1657C62.9375 35.1499 68.7167 35.1657 74.4958 35.1657C75.62 35.1657 76.4592 35.5616 76.5542 36.7807C76.6333 37.7941 75.7783 38.4591 74.4325 38.4591C71.5508 38.4907 68.685 38.4749 65.8192 38.4749Z" fill="#1A3954"/>
<path d="M65.93 45.7424C68.7483 45.7424 71.5825 45.7424 74.4008 45.7424C75.81 45.7424 76.5542 46.3282 76.5542 47.3732C76.5542 48.4341 75.81 49.0041 74.385 49.0041C68.6533 49.0199 62.9217 49.0199 57.1742 49.0041C55.7492 49.0041 55.0208 48.4182 55.0367 47.3574C55.0525 46.2966 55.765 45.7424 57.19 45.7266C60.1033 45.7266 63.0167 45.7266 65.93 45.7424C65.93 45.7266 65.93 45.7266 65.93 45.7424Z" fill="#1A3954"/>
<path d="M65.7083 56.2716C68.6217 56.2716 71.535 56.2716 74.4483 56.2716C75.8417 56.2716 76.6333 56.905 76.5383 57.95C76.4275 59.185 75.5883 59.5333 74.4642 59.5333C68.685 59.5175 62.9058 59.5333 57.1267 59.5175C55.7175 59.5175 54.9575 58.9 55.0525 57.8233C55.1475 56.5566 56.0025 56.24 57.1267 56.2558C59.9767 56.2716 62.8425 56.2716 65.7083 56.2716Z" fill="#1A3954"/>
</svg>
