<svg width="95" height="95" viewBox="0 0 95 95" fill="none" xmlns="http://www.w3.org/2000/svg">
<path d="M7.6475 69.1442C7.6475 57 7.6475 44.8559 7.6475 32.7117C7.77417 32.3 7.885 31.8725 8.0275 31.4609C9.00917 28.6742 11.4792 27.0275 14.7408 27.0275C24.415 27.0275 34.0892 27.0275 43.7633 27.0275C44.0958 27.0275 44.4283 27.0275 44.84 27.0275C44.84 26.6634 44.84 26.3942 44.84 26.1092C44.84 21.565 44.84 17.0367 44.84 12.4925C44.84 10.6875 45.8058 9.32588 47.4842 8.66088C47.6425 8.59754 47.8008 8.50254 47.9433 8.43921C59.9767 8.43921 72.0258 8.43921 84.0592 8.43921C85.7533 8.91421 86.8458 10.0067 87.3208 11.7009C87.3208 36.0842 87.3208 60.4675 87.3208 84.8667C86.8458 86.5609 85.7533 87.6534 84.0592 88.1284C64.0775 88.1284 44.1117 88.1284 24.13 88.1284C23.6392 87.9067 23.1167 87.7167 22.6733 87.4317C21.2167 86.4975 20.5833 84.6609 21.0742 82.9984C21.565 81.3675 23.0375 80.2117 24.7792 80.18C26.125 80.1484 27.455 80.18 28.8325 80.18C28.8325 78.3592 28.8325 76.6492 28.8325 74.86C28.4683 74.86 28.1517 74.86 27.8508 74.86C23.4175 74.86 18.9842 74.8759 14.5508 74.86C11.5742 74.8442 9.405 73.4984 8.15417 70.7592C7.9325 70.2525 7.82167 69.6825 7.6475 69.1442ZM10.3075 65.5184C28.9433 65.5184 47.4683 65.5184 66.1042 65.5184C66.1042 65.2017 66.1042 64.9167 66.1042 64.6475C66.1042 54.5142 66.1042 44.365 66.1042 34.2317C66.1042 31.255 64.5683 29.7034 61.6233 29.7034C46.0117 29.7034 30.4 29.7034 14.7883 29.7034C11.8908 29.7034 10.3233 31.2867 10.3233 34.1842C10.3233 44.3175 10.3233 54.4667 10.3233 64.6C10.3075 64.885 10.3075 65.1542 10.3075 65.5184ZM47.5 27.0275C47.8958 27.0275 48.2125 27.0275 48.5133 27.0275C52.8517 27.0275 57.1742 27.0117 61.5125 27.0434C62.2092 27.0434 62.9217 27.075 63.6025 27.2334C66.8325 27.9775 68.7642 30.59 68.7642 34.1684C68.7642 45.3467 68.7642 56.525 68.7642 67.7034C68.7642 68.3525 68.7325 69.0017 68.6058 69.635C67.9092 72.8017 65.265 74.86 61.8767 74.8759C57.4117 74.8917 52.9467 74.8759 48.4975 74.8759C48.1967 74.8759 47.8958 74.8759 47.5792 74.8759C47.5792 76.6967 47.5792 78.4067 47.5792 80.18C48.3075 80.18 48.9725 80.18 49.6375 80.18C50.3183 80.18 50.9833 80.1642 51.6642 80.1959C53.39 80.2592 54.8942 81.3992 55.29 83.0775C55.4642 83.8375 55.4008 84.645 55.4483 85.4684C55.5117 85.4684 55.6542 85.5 55.8125 85.5C64.9167 85.5 74.0208 85.5 83.125 85.5C84.2492 85.5 84.7083 84.9775 84.7083 83.7742C84.7083 60.1192 84.7083 36.4642 84.7083 12.8092C84.7083 11.5742 84.2492 11.115 83.0142 11.115C71.725 11.115 60.4517 11.115 49.1625 11.115C47.975 11.0834 47.5 11.5584 47.5 12.7459C47.5 17.29 47.5 21.8184 47.5 26.3625C47.5 26.5367 47.5 26.7109 47.5 27.0275ZM10.3392 68.2417C10.4025 70.68 12.1442 72.2 14.7567 72.2C30.3842 72.2 46.0275 72.2 61.655 72.2C62.0983 72.2 62.5417 72.1684 62.9692 72.0892C64.79 71.7409 66.1992 69.9359 65.9775 68.2417C47.4525 68.2417 28.9275 68.2417 10.3392 68.2417ZM38.2217 85.4842C42.4492 85.4842 46.6767 85.4842 50.8883 85.4842C51.1258 85.4842 51.3633 85.5 51.585 85.4684C52.3133 85.3734 52.82 84.7875 52.7725 84.0909C52.7408 83.41 52.25 82.9034 51.5217 82.84C51.3158 82.8242 51.11 82.8242 50.9042 82.8242C42.4333 82.8242 33.9467 82.8242 25.4758 82.8242C25.2225 82.8242 24.9533 82.8084 24.7 82.84C24.035 82.9509 23.6392 83.3784 23.5917 84.0434C23.5442 84.6767 23.845 85.1517 24.4625 85.3575C24.7475 85.4525 25.08 85.4525 25.3808 85.4525C29.6717 85.4842 33.9467 85.4842 38.2217 85.4842ZM44.8083 80.1325C44.8083 78.3434 44.8083 76.6492 44.8083 74.9234C40.3908 74.9234 36.005 74.9234 31.6192 74.9234C31.6192 76.6809 31.6192 78.3909 31.6192 80.1325C36.0367 80.1325 40.3908 80.1325 44.8083 80.1325Z" fill="#1A3954"/>
<path d="M87.3525 11.7009C86.8775 10.0067 85.785 8.91421 84.0908 8.43921C85.1833 8.43921 86.2758 8.43921 87.3525 8.43921C87.3525 9.53171 87.3525 10.6084 87.3525 11.7009Z" fill="white"/>
<path d="M14.535 48.2758C13.3 48.2758 12.6508 47.1992 13.1258 46.3283C13.2525 46.1067 13.4425 45.9167 13.6167 45.7425C17.8442 41.4992 22.0875 37.2717 26.315 33.0283C26.4733 32.87 26.6475 32.68 26.8375 32.5692C27.3758 32.2367 27.93 32.2525 28.4208 32.6642C28.9433 33.1075 29.0067 33.6775 28.7217 34.2792C28.6425 34.4533 28.4842 34.6275 28.3417 34.77C24.035 39.0767 19.7283 43.3992 15.4058 47.69C15.1367 47.9908 14.7092 48.165 14.535 48.2758Z" fill="#1A3954"/>
<path d="M21.1058 33.6142C20.8208 34.0892 20.6625 34.485 20.3933 34.7542C18.7467 36.4483 17.0683 38.1108 15.39 39.7733C14.6933 40.47 13.9017 40.5017 13.3317 39.9C12.7775 39.3142 12.825 38.5858 13.49 37.905C15.1683 36.2108 16.8625 34.5325 18.5408 32.8383C19.0158 32.3633 19.6017 32.1733 20.1558 32.5058C20.5517 32.7275 20.7733 33.2025 21.1058 33.6142Z" fill="#1A3954"/>
<path d="M66.1833 15.0892C70.4425 15.0892 74.6858 15.0892 78.945 15.0892C81.0508 15.0892 82.0483 16.0867 82.0483 18.1767C82.0483 18.8734 82.0642 19.5701 82.0483 20.2826C82.0167 21.9134 80.9242 23.0534 79.3092 23.0534C70.49 23.0692 61.6867 23.0692 52.8675 23.0534C51.2842 23.0534 50.1917 21.9134 50.16 20.3459C50.1442 19.5701 50.16 18.7942 50.16 18.0184C50.1758 16.1817 51.205 15.1051 53.0417 15.1051C57.4117 15.0892 61.7975 15.0892 66.1833 15.0892ZM79.3408 17.7967C70.49 17.7967 61.6867 17.7967 52.8517 17.7967C52.8517 18.6676 52.8517 19.5067 52.8517 20.3459C61.7183 20.3459 70.5217 20.3459 79.3408 20.3459C79.3408 19.4751 79.3408 18.6517 79.3408 17.7967Z" fill="#1A3954"/>
<path d="M76.7442 37.6833C78.945 37.6992 80.6708 39.4408 80.6867 41.6417C80.6867 43.8742 78.8975 45.6475 76.6967 45.6317C74.5275 45.6158 72.7383 43.8108 72.7383 41.6575C72.7225 39.4408 74.5275 37.6675 76.7442 37.6833ZM78.0267 41.6733C78.0425 40.9133 77.4725 40.3433 76.7283 40.3433C76 40.3433 75.3825 40.945 75.3983 41.6733C75.4142 42.3542 76 42.9558 76.6808 42.9875C77.3933 43.0033 78.0108 42.4017 78.0267 41.6733Z" fill="#1A3954"/>
<path d="M80.6867 31.0176C80.6867 33.2342 78.8817 35.0392 76.6808 35.0076C74.5117 34.9759 72.7383 33.1867 72.7225 31.0176C72.7225 28.8167 74.5433 27.0117 76.7442 27.0276C78.945 27.0592 80.6867 28.8167 80.6867 31.0176ZM76.6967 29.7034C75.9683 29.7192 75.3667 30.3209 75.3825 31.0492C75.4142 31.7301 76 32.3159 76.6967 32.3317C77.425 32.3476 78.0267 31.7459 78.0267 31.0176C78.0267 30.2576 77.4567 29.7034 76.6967 29.7034Z" fill="#1A3954"/>
<path d="M79.4042 80.0851C79.4042 79.6417 79.3725 79.1984 79.4042 78.7709C79.4517 78.0426 79.9583 77.5676 80.655 77.5359C81.3517 77.5042 81.9692 77.9476 82.0167 78.6601C82.08 79.6576 82.08 80.6867 82.0167 81.6842C81.9692 82.3809 81.32 82.8559 80.6708 82.8242C80.0058 82.7926 79.4675 82.2701 79.42 81.5734C79.3725 81.0826 79.4042 80.5759 79.4042 80.0851Z" fill="#1A3954"/>
<path d="M60.7525 80.1326C60.7525 80.6234 60.7842 81.1142 60.7525 81.6051C60.705 82.2859 60.1983 82.7609 59.5492 82.8084C58.9317 82.8559 58.2508 82.4284 58.2033 81.7792C58.1242 80.7026 58.1083 79.6101 58.2033 78.5334C58.2667 77.8367 58.8367 77.4884 59.565 77.5359C60.23 77.5676 60.705 78.0426 60.7525 78.7392C60.7842 79.1984 60.7525 79.6576 60.7525 80.1326Z" fill="#1A3954"/>
<path d="M74.0842 80.1484C74.0842 79.6892 74.0525 79.2142 74.0842 78.7551C74.1317 78.0584 74.6067 77.5834 75.2717 77.5359C76 77.4884 76.57 77.8367 76.6333 78.5176C76.7283 79.6101 76.7283 80.7342 76.6175 81.8426C76.5542 82.5076 75.9683 82.8242 75.3033 82.8084C74.6542 82.7926 74.1475 82.2859 74.0842 81.6209C74.0683 81.1301 74.1 80.6392 74.0842 80.1484C74.1 80.1484 74.1 80.1484 74.0842 80.1484Z" fill="#1A3954"/>
<path d="M66.0567 80.18C66.0567 80.6708 66.1042 81.1617 66.0408 81.6525C65.9775 82.3333 65.4392 82.7925 64.79 82.8242C64.1567 82.84 63.5233 82.4125 63.4758 81.7475C63.3967 80.7183 63.3967 79.6733 63.46 78.6442C63.5075 77.9317 64.1092 77.5042 64.8058 77.5358C65.4708 77.5675 65.9617 78.0108 66.025 78.7075C66.1042 79.1983 66.0725 79.6892 66.0567 80.18Z" fill="#1A3954"/>
<path d="M68.78 80.1642C68.78 79.6734 68.7483 79.1825 68.7958 78.6917C68.8592 77.995 69.3658 77.5517 70.0308 77.5359C70.7117 77.52 71.2975 77.9 71.345 78.5967C71.4242 79.6575 71.4242 80.7184 71.345 81.7634C71.2975 82.4284 70.6483 82.8875 70.015 82.8242C69.3183 82.745 68.8592 82.365 68.78 81.6525C68.7483 81.1459 68.78 80.655 68.78 80.1642Z" fill="#1A3954"/>
</svg>
