<svg width="95" height="95" viewBox="0 0 95 95" fill="none" xmlns="http://www.w3.org/2000/svg">
<path d="M52.7408 69.5241C52.82 70.8541 52.8833 72.0733 52.9783 73.2925C52.9942 73.435 53.1842 73.6091 53.3267 73.6883C54.5775 74.29 55.3217 75.24 55.6067 76.6016C56.1292 79.1191 57.5067 81.0033 59.85 82.1275C60.2142 82.3016 60.6417 82.3808 61.0375 82.3808C63.0483 82.4125 65.075 82.3808 67.0858 82.3966C67.9408 82.3966 68.4633 82.8716 68.5108 83.5841C68.5425 84.2808 68.0675 84.8666 67.3708 84.9141C67.0383 84.9458 66.7058 84.93 66.3575 84.93C53.6117 84.93 40.8658 84.93 28.12 84.93C27.8983 84.93 27.6767 84.93 27.4708 84.93C26.7425 84.8983 26.2358 84.3758 26.22 83.6791C26.2042 82.9666 26.7267 82.4125 27.4867 82.3966C28.595 82.3808 29.7033 82.3966 30.8117 82.3966C31.6983 82.3966 32.6008 82.365 33.4875 82.4125C34.1525 82.4441 34.7225 82.2541 35.2925 81.9375C37.2717 80.8291 38.5542 79.1825 39.045 76.9816C39.3933 75.4458 40.0742 74.2583 41.5625 73.625C41.6575 73.5775 41.7683 73.435 41.7842 73.3241C41.8792 72.0891 41.9425 70.8383 42.0217 69.5083C41.7367 69.5083 41.4992 69.5083 41.2775 69.5083C33.9942 69.5083 26.7108 69.5083 19.4275 69.5083C16.1975 69.5083 14.0125 67.355 14.0125 64.125C14.0125 52.7408 14.0125 41.3725 14.0125 29.9883C14.0125 26.8216 16.2133 24.6366 19.3958 24.6208C19.8867 24.6208 20.3933 24.605 20.8842 24.6208C21.6917 24.6525 22.2142 25.175 22.2142 25.9191C22.1983 26.6158 21.6758 27.1383 20.9 27.17C20.3142 27.1858 19.7125 27.1541 19.1267 27.1858C17.7175 27.2333 16.6725 28.2466 16.5775 29.6558C16.5617 29.8933 16.5775 30.1308 16.5775 30.3683C16.5775 39.3458 16.5775 48.3391 16.5775 57.3166C16.5775 57.5066 16.5933 57.7125 16.6092 57.9341C20.6308 57.9341 24.605 57.9341 28.6425 57.9341C28.6425 56.3033 28.6425 54.6883 28.6425 53.1525C27.9142 53.1841 27.17 53.3266 26.4733 53.2316C24.3517 52.9466 22.9108 51.2525 22.895 49.0833C22.8792 46.5341 22.895 43.985 22.895 41.42C22.895 37.905 22.895 34.3741 22.895 30.8591C22.895 27.3916 25.2067 25.0958 28.6583 25.0958C29.4342 25.0958 30.21 25.1433 30.97 25.08C31.7775 25.0166 32.4267 25.27 33.06 25.7291C34.6117 26.8216 36.195 27.8666 37.7625 28.9591C38.1267 29.2125 38.38 29.1966 38.7442 28.9433C40.4067 27.7716 42.1008 26.6158 43.795 25.5075C44.175 25.27 44.6658 25.1116 45.1092 25.1116C46.3758 25.08 47.6583 25.0325 48.9092 25.175C51.5533 25.4758 53.5325 27.74 53.58 30.4C53.6117 32.1733 53.58 33.9625 53.58 35.8466C53.8492 35.8466 54.0708 35.8466 54.3083 35.8466C57.1742 35.8466 60.04 35.8466 62.9217 35.8466C65.3442 35.8466 67.2125 37.6516 67.2283 39.9633C67.2442 42.3383 65.3917 44.1591 62.9375 44.1591C58.5517 44.175 54.15 44.175 49.7642 44.1433C49.1467 44.1433 48.5292 43.9691 47.8642 43.8741C47.8642 48.5133 47.8642 53.1841 47.8642 57.9025C57.9817 57.9025 68.0833 57.9025 78.2325 57.9025C78.2483 57.6808 78.2642 57.475 78.2642 57.2691C78.2642 48.2441 78.2483 39.2191 78.2642 30.1941C78.2642 28.9908 77.9 28.0408 76.8233 27.4075C76.2217 27.0433 76.0792 26.2675 76.4433 25.6816C76.7917 25.1116 77.5358 24.9058 78.1533 25.2541C79.7525 26.1566 80.6075 27.5658 80.7817 29.3866C80.8133 29.6558 80.7975 29.9408 80.7975 30.21C80.7975 41.4675 80.7658 52.725 80.8292 63.9983C80.845 67.1333 78.4383 69.54 75.3033 69.5083C68.0992 69.4291 60.895 69.4766 53.6908 69.4766C53.3742 69.5241 53.0892 69.5241 52.7408 69.5241ZM45.2358 57.9816C45.2358 57.6966 45.2358 57.475 45.2358 57.2375C45.2358 50.16 45.2358 43.0666 45.2358 35.9891C45.2358 34.9283 45.6792 34.3583 46.5183 34.3583C47.3417 34.3583 47.7692 34.9283 47.7692 36.0208C47.7692 37.1608 47.7692 38.3166 47.7692 39.4566C47.7692 40.9766 48.4658 41.6575 50.0017 41.6575C54.15 41.6575 58.3142 41.6575 62.4625 41.6575C62.7 41.6575 62.9375 41.6575 63.175 41.6416C64.0617 41.5625 64.6792 40.8341 64.6317 39.9316C64.5842 39.0291 63.8875 38.4275 62.8425 38.4275C59.755 38.4275 56.6675 38.4275 53.58 38.4275C51.9492 38.4275 51.0308 37.525 51.0308 35.8941C51.0308 34.1525 51.0467 32.4108 51.0308 30.6691C51.015 28.9275 49.8117 27.7241 48.0858 27.6925C47.2783 27.6766 46.455 27.6608 45.6475 27.7083C45.3308 27.7241 44.9825 27.8191 44.7133 27.9933C43.0983 29.0541 41.4992 30.1783 39.8842 31.2391C39.5517 31.4608 39.4567 31.6983 39.4567 32.0625C39.4725 33.1866 39.4725 34.3108 39.4567 35.4508C39.4567 36.3375 38.9817 36.86 38.2217 36.8916C37.43 36.9075 36.9233 36.3533 36.9233 35.4666C36.9075 34.3266 36.9075 33.1708 36.9233 32.0308C36.9233 31.6666 36.8125 31.4608 36.5117 31.255C35.4825 30.5741 34.4058 29.9566 33.4875 29.165C32.0467 27.9458 30.4475 27.5341 28.5792 27.6608C26.5525 27.8033 25.3967 28.8483 25.3967 30.9066C25.3967 36.7175 25.3967 42.5441 25.3967 48.355C25.3967 48.6716 25.3808 48.9883 25.4125 49.305C25.4917 50.2075 26.2675 50.8408 27.17 50.7616C28.0725 50.6825 28.6425 50.0016 28.6425 48.9408C28.6425 44.6658 28.6425 40.3908 28.6425 36.1158C28.6425 35.8466 28.6425 35.5616 28.7058 35.2925C28.8325 34.7225 29.3233 34.3425 29.9092 34.3425C30.495 34.3425 30.9858 34.7066 31.1283 35.2766C31.1917 35.53 31.1917 35.7833 31.1917 36.0366C31.1917 42.9875 31.1917 49.9225 31.1917 56.8733C31.1917 57.2216 31.1917 57.57 31.1917 57.95C33.1392 57.95 35.0233 57.95 36.9233 57.95C36.9233 57.665 36.9233 57.4275 36.9233 57.19C36.9233 54.4033 36.9233 51.6166 36.9233 48.8141C36.9233 47.9433 37.3508 47.4366 38.0792 47.3575C38.8708 47.2783 39.4567 47.8483 39.4567 48.7666C39.4725 51.5375 39.4567 54.3083 39.4567 57.0791C39.4567 57.3641 39.4567 57.665 39.4567 57.9658C41.42 57.9816 43.2725 57.9816 45.2358 57.9816ZM78.185 60.61C57.6175 60.61 37.1133 60.61 16.5933 60.61C16.5933 62.0191 16.5142 63.3966 16.625 64.7425C16.6725 65.2966 17.0683 65.8825 17.4483 66.31C17.9867 66.9275 18.7783 66.9908 19.5858 66.9908C37.9525 66.9908 56.3192 66.9908 74.67 66.9908C74.9867 66.9908 75.3033 67.0066 75.62 66.9908C76.9975 66.9116 78.0742 65.9933 78.1533 64.6316C78.2483 63.3175 78.185 61.9875 78.185 60.61ZM55.7492 82.365C55.6225 82.1908 55.5592 82.08 55.4642 81.985C54.2925 80.6233 53.5325 79.0558 53.1367 77.2983C52.8992 76.2216 52.5033 75.9208 51.4108 75.9208C48.7667 75.9208 46.1067 75.9208 43.4625 75.9208C42.1958 75.9208 41.8633 76.1741 41.5783 77.4091C41.1667 79.135 40.4225 80.6866 39.2508 82.0166C39.1717 82.1116 39.1083 82.2225 39.0292 82.365C44.6183 82.365 50.16 82.365 55.7492 82.365ZM50.3975 73.3558C50.3342 72.1525 50.2867 70.9966 50.1917 69.8408C50.1758 69.73 49.9383 69.5558 49.7958 69.5558C48.1808 69.54 46.55 69.54 44.935 69.5558C44.8083 69.5558 44.5867 69.7141 44.5708 69.8091C44.4758 70.9808 44.4283 72.1525 44.3492 73.3716C46.4075 73.3558 48.3708 73.3558 50.3975 73.3558Z" fill="#1A3954"/>
<path d="M67.8458 10.7666C70.7117 10.8933 73.3717 11.8433 75.3508 14.2183C77.6783 17.005 77.4883 20.805 74.9392 23.4175C73.055 25.3333 70.7275 26.2041 68.0833 26.3941C67.7825 26.41 67.4342 26.5525 67.1808 26.7425C65.6292 27.9616 64.0933 29.2125 62.5575 30.4633C61.9717 30.9383 61.4333 31.0016 60.9267 30.6691C60.42 30.3525 60.2458 29.8141 60.42 29.1016C60.7367 27.7875 61.0375 26.4891 61.3858 25.1908C61.4967 24.795 61.4175 24.5733 61.085 24.3041C59.1375 22.8158 57.9817 20.8841 58.0767 18.3666C58.1717 15.6116 59.6758 13.68 61.94 12.2866C63.6817 11.1941 65.6292 10.7508 67.8458 10.7666ZM63.745 26.22C64.6158 25.5233 65.36 24.9375 66.0883 24.32C66.5 23.9558 66.9592 23.8291 67.4975 23.8291C69.2867 23.845 70.9333 23.3858 72.39 22.2933C74.9075 20.425 75.0975 17.3375 72.8492 15.2316C70.1258 12.6983 64.9958 12.6508 62.2408 15.1366C60.5308 16.6883 60.1033 18.7308 61.1325 20.5991C61.6708 21.5808 62.4942 22.2775 63.46 22.8316C64.1567 23.2433 64.3467 23.6708 64.1567 24.4625C64.03 25.0008 63.9033 25.5233 63.745 26.22Z" fill="#1A3954"/>
<path d="M45.6475 17.5592C45.6475 21.6601 42.3542 24.9851 38.285 24.9851C34.1208 25.0009 30.78 21.6759 30.78 17.5592C30.78 13.4267 34.1208 10.1176 38.2692 10.1176C42.3225 10.1334 45.6475 13.4742 45.6475 17.5592ZM33.3292 17.5909C33.345 20.2667 35.5458 22.4517 38.2058 22.4517C40.8658 22.4517 43.0825 20.2509 43.0983 17.5909C43.0983 14.8517 40.8817 12.6509 38.1583 12.6667C35.4667 12.7142 33.3292 14.8992 33.3292 17.5909Z" fill="#1A3954"/>
<path d="M64.9008 49.2575C67.26 49.2575 69.6033 49.2575 71.9625 49.2575C72.2475 49.2575 72.5642 49.2892 72.8333 49.3842C73.3558 49.5742 73.6092 50.1125 73.5458 50.6825C73.4825 51.2209 73.0708 51.6642 72.5325 51.775C72.4217 51.7909 72.295 51.7909 72.1842 51.7909C67.3233 51.7909 62.4625 51.7909 57.6017 51.7909C57.4908 51.7909 57.3642 51.7909 57.2533 51.775C56.6042 51.6642 56.1767 51.1259 56.1925 50.4767C56.2083 49.8275 56.6675 49.305 57.3483 49.2734C57.9342 49.2259 58.5358 49.2575 59.1217 49.2575C61.0217 49.2575 62.9533 49.2575 64.9008 49.2575Z" fill="#1A3954"/>
</svg>
