<svg width="95" height="104" viewBox="0 0 95 104" fill="none" xmlns="http://www.w3.org/2000/svg">
<path d="M12.9675 12.0048C12.8567 10.1339 13.0308 8.33233 14.5033 7.03312C15.3267 6.30556 16.2608 5.9591 17.3217 6.01107C19.8392 6.11501 21.0583 7.89926 21.3592 12.0394C23.1642 12.0394 24.9692 12.0394 26.885 12.0394C26.7742 10.1166 26.9642 8.28037 28.4842 6.99847C29.3233 6.28824 30.2733 5.9591 31.3183 6.02839C33.8042 6.1843 35.0075 7.98588 35.2767 12.0394C37.0817 12.0394 38.8867 12.0394 40.8025 12.0394C40.8025 11.5197 40.7867 10.9827 40.8025 10.463C40.8817 7.98588 42.7183 6.02839 44.9667 6.02839C47.215 6.02839 49.0517 7.96855 49.1467 10.463C49.1625 10.9654 49.1467 11.4678 49.1467 12.126C50.0967 12.126 51.015 12.126 51.9175 12.126C52.8042 12.126 53.7067 12.126 54.72 12.126C54.72 11.5371 54.7042 11.0174 54.72 10.4804C54.7992 8.0032 56.6358 6.04572 58.8842 6.02839C61.1325 6.02839 62.985 7.96855 63.0642 10.4457C63.08 10.9481 63.0642 11.4678 63.0642 12.126C63.9983 12.126 64.9167 12.126 65.835 12.126C66.7375 12.126 67.6242 12.126 68.6375 12.126C68.6375 11.5717 68.6217 11.0867 68.6375 10.5843C68.685 8.03785 70.5058 6.04572 72.7858 6.02839C75.0658 6.01107 76.9183 7.98588 76.9817 10.5323C76.9975 11.0347 76.9817 11.5371 76.9817 12.0741C79.1033 12.2127 80.8767 13.0268 82.2383 14.7418C83.4733 16.3009 83.9483 18.1371 83.9483 20.1812C83.9325 33.1907 83.9483 46.2001 83.9325 59.2096C83.9325 59.9372 84.1067 60.3876 84.6925 60.8033C90.5033 64.9435 93.3533 72.5309 91.9125 79.8931C90.4717 87.2553 85.0092 92.9372 78.185 94.0979C74.2267 94.7734 70.5217 93.9419 67.0542 91.7766C66.6108 91.4994 66.0408 91.3089 65.5183 91.3089C48.2125 91.2915 30.8908 91.2915 13.585 91.2915C8.86667 91.2915 5.985 88.1561 5.985 83.0112C5.985 62.3277 6.04833 41.6442 5.9375 20.9434C5.9375 16.4221 8.09083 12.5071 12.9675 12.0048ZM8.81917 33.4505C8.80333 33.7103 8.80333 33.8662 8.80333 34.0395C8.80333 50.5308 8.80333 67.0395 8.80333 83.5309C8.80333 86.3372 10.6083 88.2427 13.2367 88.2427C29.5925 88.2427 45.9483 88.2427 62.3042 88.2427C62.5417 88.2427 62.7792 88.2081 62.9058 88.1908C61.8292 86.1986 60.7683 84.2238 59.66 82.1451C58.235 82.1451 56.6675 82.1451 55.1 82.1451C53.8333 82.1451 53.3425 81.6081 53.3425 80.2569C53.3425 77.4679 53.3425 74.6789 53.3425 71.8899C53.3425 70.5041 53.8175 69.9844 55.0683 69.9671C56.4933 69.9498 57.9025 69.9844 59.3275 69.9498C59.5492 69.9498 59.8817 69.8285 59.9608 69.6553C60.3567 68.7891 60.705 67.8884 61.085 66.9183C59.0425 66.9183 57.0792 66.9183 55.1 66.9183C53.8333 66.9183 53.3425 66.3986 53.3425 65.0474C53.3425 62.2238 53.3267 59.4002 53.3425 56.5765C53.3425 55.2773 53.8492 54.7403 55.0525 54.7403C57.5383 54.7403 60.04 54.7403 62.5258 54.7403C64.0617 54.7403 64.4733 55.208 64.4733 56.8883C64.4733 58.6726 64.4733 60.4742 64.4733 62.345C65.3917 61.6521 66.215 61.0631 66.975 60.4222C67.1492 60.2663 67.2283 59.8852 67.2442 59.608C67.2758 58.534 67.2442 57.4427 67.26 56.3686C67.2758 55.3466 67.7983 54.7576 68.7167 54.7576C71.44 54.7403 74.1633 54.7403 76.8867 54.7576C77.8208 54.7576 78.3275 55.3466 78.375 56.3513C78.3908 56.7671 78.3433 57.1828 78.3908 57.5812C78.4225 57.7718 78.565 58.0663 78.7233 58.1183C79.4992 58.3608 80.2908 58.5513 81.0983 58.7592C81.0983 50.3056 81.0983 41.8867 81.0983 33.4678C57 33.4505 32.9333 33.4505 8.81917 33.4505ZM8.80333 30.2977C32.9808 30.2977 57.0475 30.2977 81.1617 30.2977C81.1617 26.5906 81.225 22.9355 81.13 19.2977C81.0667 16.9245 78.9925 14.9843 76.9975 15.2615C76.9975 16.6473 76.9975 18.0331 76.9975 19.4363C76.9817 22.208 75.2242 24.2694 72.8492 24.2694C70.4425 24.2867 68.6533 22.2253 68.6533 19.3843C68.6533 17.9985 68.6533 16.6127 68.6533 15.1922C66.7692 15.1922 64.9483 15.1922 63.08 15.1922C63.08 16.7686 63.1117 18.2757 63.08 19.8001C63.0167 22.104 61.4333 23.9922 59.375 24.2521C57.285 24.5119 55.3217 23.0221 54.8625 20.7182C54.72 20.0253 54.7517 19.2631 54.7358 18.5528C54.72 17.4268 54.7358 16.3009 54.7358 15.1402C53.6908 15.1402 52.8042 15.1402 51.9017 15.1402C51.015 15.1402 50.1283 15.1402 49.1625 15.1402C49.1625 16.7686 49.1942 18.2757 49.1625 19.8001C49.0992 22.8662 46.4075 24.9623 43.7475 24.0788C42.0217 23.5072 40.85 21.7576 40.8183 19.7135C40.8025 18.2064 40.8183 16.6993 40.8183 15.2095C38.9025 15.2095 37.1133 15.2095 35.245 15.2095C35.245 16.7686 35.2767 18.293 35.245 19.8001C35.1975 22.3812 33.2817 24.356 30.9542 24.2867C28.7533 24.2174 26.9642 22.2599 26.9167 19.8174C26.885 18.2757 26.9167 16.7339 26.9167 15.2095C25.0008 15.2095 23.2117 15.2095 21.3433 15.2095C21.3433 16.6993 21.3433 18.1544 21.3433 19.6095C21.3433 20.7355 21.0425 21.7402 20.4092 22.6064C19.3167 24.0961 17.5117 24.6678 15.865 24.0788C14.2183 23.4898 13.0467 21.7922 13.015 19.8347C12.9833 18.293 13.015 16.7512 13.015 15.2095C10.7825 15.2615 8.93 17.0284 8.86667 19.3324C8.74 22.9528 8.80333 26.5906 8.80333 30.2977ZM89.5217 76.0301C89.49 67.6285 83.2517 60.8033 75.62 60.838C67.8617 60.8553 61.655 67.6805 61.6867 76.186C61.7025 84.553 68.0358 91.3435 75.7625 91.2915C83.3308 91.2396 89.5692 84.3278 89.5217 76.0301ZM61.6392 63.8348C61.6392 61.7734 61.6392 59.8159 61.6392 57.8411C59.7867 57.8411 57.9817 57.8411 56.1767 57.8411C56.1767 59.8679 56.1767 61.8427 56.1767 63.8348C58.0292 63.8348 59.8025 63.8348 61.6392 63.8348ZM74.2108 15.1056C74.2108 13.6851 74.2267 12.2473 74.2108 10.8268C74.195 9.71816 73.6408 9.04257 72.8017 9.05989C71.9783 9.07722 71.44 9.73549 71.44 10.7922C71.4242 13.6851 71.4242 16.5607 71.44 19.4536C71.44 20.5623 72.01 21.2379 72.8492 21.2205C73.6567 21.2032 74.195 20.5276 74.2108 19.4883C74.2267 18.0331 74.2108 16.5607 74.2108 15.1056ZM60.2933 15.1402C60.2933 13.7197 60.3092 12.2819 60.2933 10.8615C60.2775 9.73549 59.755 9.05989 58.9 9.05989C58.0608 9.05989 57.5067 9.73549 57.5067 10.8615C57.4908 13.7197 57.4908 16.578 57.5067 19.419C57.5067 20.545 58.045 21.2205 58.9 21.2205C59.7392 21.2205 60.2775 20.5276 60.2933 19.419C60.3092 17.9985 60.2933 16.5607 60.2933 15.1402ZM43.5892 15.1402C43.5892 16.5607 43.5733 17.9985 43.5892 19.419C43.605 20.545 44.1433 21.2205 44.9825 21.2205C45.8217 21.2205 46.36 20.5276 46.3758 19.419C46.3917 16.5607 46.3917 13.7024 46.3758 10.8615C46.3758 9.73549 45.8217 9.05989 44.9825 9.05989C44.1433 9.05989 43.605 9.73549 43.5892 10.8615C43.5892 12.2819 43.5892 13.7024 43.5892 15.1402ZM32.4583 15.1922C32.4583 13.7371 32.4742 12.2819 32.4583 10.8095C32.4425 9.70084 31.8883 9.02525 31.0333 9.04257C30.2258 9.05989 29.6875 9.71816 29.6717 10.7922C29.6558 13.6851 29.6558 16.5607 29.6717 19.4536C29.6717 20.545 30.2417 21.2379 31.0967 21.2205C31.9042 21.2032 32.4425 20.5276 32.4583 19.4709C32.4583 18.0505 32.4583 16.63 32.4583 15.1922ZM18.5408 15.2268C18.5408 13.7717 18.5567 12.3166 18.5408 10.8442C18.525 9.71816 17.9867 9.04257 17.1475 9.04257C16.3083 9.04257 15.77 9.71816 15.7542 10.8442C15.7383 13.7024 15.7383 16.5607 15.7542 19.4016C15.7542 20.5276 16.2925 21.2032 17.1475 21.2032C17.9867 21.2032 18.525 20.5103 18.5408 19.4016C18.5408 18.0331 18.5408 16.63 18.5408 15.2268ZM58.995 73.0852C58.0925 73.0852 57.1267 73.0852 56.1925 73.0852C56.1925 75.1293 56.1925 77.1041 56.1925 79.0443C57.2058 79.0443 58.14 79.0443 58.995 79.0443C58.995 77.0175 58.995 75.06 58.995 73.0852ZM70.0783 58.7419C71.345 58.4301 72.5167 58.1356 73.7358 57.8238C72.485 57.8238 71.2975 57.8238 70.0783 57.8238C70.0783 58.1529 70.0783 58.4127 70.0783 58.7419Z" fill="#1A3954"/>
<path d="M44.9825 82.145C43.6842 82.145 42.37 82.1623 41.0717 82.145C39.9317 82.1277 39.425 81.5734 39.425 80.3434C39.4092 77.4852 39.4092 74.6269 39.425 71.786C39.425 70.5388 39.9317 69.9844 41.0717 69.9844C43.6842 69.9671 46.2967 69.9671 48.8933 69.9844C50.0333 69.9844 50.54 70.5388 50.54 71.786C50.5558 74.6443 50.5558 77.5025 50.54 80.3434C50.54 81.5907 50.0175 82.145 48.8933 82.145C47.595 82.1623 46.2808 82.145 44.9825 82.145ZM42.2433 79.0616C44.1275 79.0616 45.9167 79.0616 47.7217 79.0616C47.7217 77.0348 47.7217 75.06 47.7217 73.0852C45.8692 73.0852 44.0642 73.0852 42.2433 73.0852C42.2433 75.0946 42.2433 77.0521 42.2433 79.0616Z" fill="#1A3954"/>
<path d="M31.065 82.145C29.7667 82.145 28.4525 82.1623 27.1542 82.145C26.0142 82.1277 25.5075 81.5734 25.5075 80.3434C25.4917 77.4852 25.4917 74.6269 25.5075 71.786C25.5075 70.5388 26.0142 69.9844 27.1542 69.9844C29.7667 69.9671 32.3792 69.9671 34.9758 69.9844C36.1158 69.9844 36.6225 70.5388 36.6225 71.786C36.6383 74.6443 36.6383 77.5025 36.6225 80.3434C36.6225 81.5907 36.1 82.1277 34.9758 82.145C33.6617 82.1623 32.3633 82.145 31.065 82.145ZM28.3417 73.0506C28.3417 75.0946 28.3417 77.0694 28.3417 79.0269C30.21 79.0269 32.015 79.0269 33.8042 79.0269C33.8042 77.0002 33.8042 75.0427 33.8042 73.0506C31.9675 73.0506 30.1783 73.0506 28.3417 73.0506Z" fill="#1A3954"/>
<path d="M17.1158 82.1451C15.8175 82.1451 14.5033 82.1624 13.205 82.1451C12.1125 82.1277 11.59 81.5734 11.59 80.4128C11.5742 77.5199 11.5742 74.6443 11.59 71.7514C11.59 70.5561 12.0967 69.9844 13.1733 69.9844C15.8175 69.9671 18.4458 69.9671 21.09 69.9844C22.1825 69.9844 22.705 70.5561 22.7208 71.7167C22.7367 74.6096 22.7367 77.4852 22.7208 80.3781C22.7208 81.608 22.1983 82.1451 21.0425 82.1624C19.7283 82.1624 18.4142 82.1451 17.1158 82.1451ZM14.4083 73.0506C14.4083 75.112 14.4083 77.0695 14.4083 79.0443C16.2608 79.0443 18.0658 79.0443 19.8708 79.0443C19.8708 77.0175 19.8708 75.0427 19.8708 73.0506C18.0183 73.0506 16.2292 73.0506 14.4083 73.0506Z" fill="#1A3954"/>
<path d="M50.5558 60.924C50.5558 62.3272 50.5717 63.713 50.5558 65.1161C50.54 66.3634 50.0333 66.9177 48.9092 66.9177C46.2967 66.935 43.6842 66.935 41.0875 66.9177C39.9475 66.9177 39.4408 66.3634 39.4408 65.1161C39.425 62.2579 39.425 59.3996 39.4408 56.5587C39.4408 55.3115 39.9475 54.7571 41.0875 54.7571C43.7 54.7398 46.3125 54.7398 48.9092 54.7571C50.0492 54.7571 50.5558 55.3115 50.5558 56.5587C50.5558 57.9965 50.5558 59.4689 50.5558 60.924ZM47.7217 57.8579C45.8533 57.8579 44.0483 57.8579 42.2592 57.8579C42.2592 59.902 42.2592 61.8768 42.2592 63.8343C44.1117 63.8343 45.9008 63.8343 47.7217 63.8343C47.7217 61.8248 47.7217 59.8673 47.7217 57.8579Z" fill="#1A3954"/>
<path d="M36.6383 60.8899C36.6383 62.293 36.6542 63.6789 36.6383 65.082C36.6225 66.3466 36.1317 66.9182 35.0075 66.9182C32.3633 66.9355 29.735 66.9355 27.0908 66.9182C26.0142 66.9182 25.5075 66.3292 25.5075 65.134C25.4917 62.2411 25.4917 59.3655 25.5075 56.4726C25.5075 55.2946 26.03 54.7403 27.1225 54.7403C29.7667 54.723 32.395 54.723 35.0392 54.7403C36.1158 54.7403 36.6225 55.3119 36.6225 56.5072C36.6383 57.9797 36.6383 59.4348 36.6383 60.8899ZM28.3417 57.8237C28.3417 59.8852 28.3417 61.86 28.3417 63.8348C30.1942 63.8348 31.9833 63.8348 33.7883 63.8348C33.7883 61.808 33.7883 59.8332 33.7883 57.8237C31.9675 57.8237 30.1783 57.8237 28.3417 57.8237Z" fill="#1A3954"/>
<path d="M11.5742 60.7686C11.5742 59.3482 11.5583 57.9104 11.5742 56.4899C11.59 55.3119 12.0967 54.7403 13.1892 54.7403C15.8333 54.723 18.4617 54.723 21.1058 54.7403C22.1825 54.7403 22.705 55.3119 22.705 56.5072C22.7208 59.4001 22.7208 62.2757 22.705 65.1686C22.705 66.3466 22.1825 66.9182 21.09 66.9182C18.4458 66.9355 15.8175 66.9355 13.1733 66.9182C12.0967 66.9182 11.59 66.3466 11.5742 65.1513C11.5583 63.6962 11.5742 62.2237 11.5742 60.7686ZM14.4083 63.8174C16.2608 63.8174 18.0658 63.8174 19.8708 63.8174C19.8708 61.7907 19.8708 59.8159 19.8708 57.8584C18.0025 57.8584 16.1975 57.8584 14.4083 57.8584C14.4083 59.8852 14.4083 61.8253 14.4083 63.8174Z" fill="#1A3954"/>
<path d="M72.8333 39.5133C74.1317 39.5133 75.4458 39.496 76.7442 39.5133C77.8842 39.5306 78.3908 40.085 78.3908 41.3322C78.4067 44.1905 78.4067 47.0487 78.3908 49.8897C78.3908 51.1369 77.8683 51.6913 76.7283 51.6913C74.1158 51.7086 71.5033 51.7086 68.9067 51.6913C67.7667 51.6913 67.2758 51.1196 67.26 49.8724C67.2441 47.0141 67.2441 44.1558 67.26 41.3149C67.26 40.0676 67.7666 39.5306 68.9225 39.5133C70.2208 39.496 71.5192 39.5133 72.8333 39.5133ZM70.0942 42.5968C70.0942 44.6409 70.0942 46.6157 70.0942 48.5732C71.9625 48.5732 73.7675 48.5732 75.5567 48.5732C75.5567 46.5464 75.5567 44.5889 75.5567 42.5968C73.7358 42.5968 71.9467 42.5968 70.0942 42.5968Z" fill="#1A3954"/>
<path d="M53.3425 45.5934C53.3425 44.1729 53.3267 42.7351 53.3425 41.3147C53.3583 40.0674 53.8492 39.5131 54.9892 39.5131C57.6017 39.4958 60.2142 39.4958 62.8108 39.5131C63.9508 39.5131 64.4575 40.0674 64.4575 41.3147C64.4733 44.1729 64.4733 47.0312 64.4575 49.8721C64.4575 51.1194 63.935 51.6737 62.8108 51.6737C60.1983 51.691 57.5858 51.691 54.9892 51.6737C53.8492 51.6737 53.3425 51.1194 53.3425 49.8721C53.3267 48.4517 53.3425 47.0312 53.3425 45.5934ZM56.1767 42.5966C56.1767 44.658 56.1767 46.6328 56.1767 48.5729C58.045 48.5729 59.85 48.5729 61.6392 48.5729C61.6392 46.5462 61.6392 44.5887 61.6392 42.5966C59.8025 42.5966 58.0292 42.5966 56.1767 42.5966Z" fill="#1A3954"/>
<path d="M45.0617 39.5133C46.3442 39.5133 47.6108 39.496 48.8933 39.5133C50.0333 39.5306 50.54 40.0676 50.54 41.3149C50.5558 44.1731 50.5558 47.0314 50.54 49.8723C50.54 51.1196 50.0333 51.6739 48.8933 51.6739C46.2808 51.6912 43.6683 51.6912 41.0717 51.6739C39.9317 51.6739 39.425 51.1196 39.425 49.8723C39.4092 47.0141 39.4092 44.1558 39.425 41.3149C39.425 40.0676 39.9317 39.5133 41.0717 39.5133C42.4017 39.496 43.7317 39.5133 45.0617 39.5133ZM42.2275 48.5731C44.1117 48.5731 45.9167 48.5731 47.7217 48.5731C47.7217 46.5464 47.7217 44.5889 47.7217 42.6141C45.8692 42.6141 44.0642 42.6141 42.2275 42.6141C42.2275 44.6235 42.2275 46.5637 42.2275 48.5731Z" fill="#1A3954"/>
<path d="M72.8017 75.4755C74.195 73.951 75.4775 72.5306 76.76 71.1101C78.28 69.4471 79.7842 67.7841 81.32 66.1384C82.2542 65.1164 82.9033 65.1164 83.8375 66.1557C85.0567 67.4723 86.26 68.7888 87.4633 70.1227C88.3658 71.1101 88.3817 71.855 87.5108 72.8077C83.03 77.7274 78.5333 82.6298 74.0367 87.5495C73.1658 88.485 72.485 88.5023 71.6458 87.5668C69.0017 84.6739 66.3575 81.781 63.7133 78.8881C62.8583 77.9526 62.8583 77.2077 63.7133 76.2723C64.9483 74.9038 66.1992 73.518 67.4658 72.1668C68.3208 71.2313 69.0017 71.2313 69.8567 72.1668C70.8067 73.2235 71.7567 74.2975 72.8017 75.4755ZM66.6267 77.4676C68.7483 79.7889 70.8383 82.0755 72.8017 84.2235C76.6808 79.9794 80.6233 75.666 84.4867 71.4219C83.9008 70.729 83.2358 69.9668 82.5233 69.1353C82.2858 69.3778 82.0483 69.603 81.8267 69.8455C79.2617 72.6518 76.6967 75.4581 74.1317 78.2644C73.1025 79.3904 72.485 79.3904 71.4875 78.2818C70.5533 77.2597 69.635 76.2203 68.685 75.1636C67.9408 76.0471 67.2442 76.792 66.6267 77.4676Z" fill="#1A3954"/>
</svg>
